<mxfile host="app.diagrams.net" modified="2024-04-17T02:46:32.330Z" agent="Mozilla/5.0 (Windows NT 10.0; Win64; x64) AppleWebKit/537.36 (KHTML, like Gecko) Chrome/123.0.0.0 Safari/537.36" etag="Jp9nltnOytEHsOaFZ1fO" version="24.2.3" type="device">
  <diagram name="ページ1" id="huuIm6nH3cGwDslmiHKk">
    <mxGraphModel dx="1434" dy="780" grid="1" gridSize="10" guides="1" tooltips="1" connect="1" arrows="1" fold="1" page="1" pageScale="1" pageWidth="1169" pageHeight="827" math="0" shadow="0">
      <root>
        <mxCell id="0" />
        <mxCell id="1" parent="0" />
        <mxCell id="52nszVkXUsVwX9IPNMUu-1" value="" style="html=1;verticalLabelPosition=bottom;align=center;labelBackgroundColor=#ffffff;verticalAlign=top;strokeWidth=2;strokeColor=#0080F0;shadow=0;dashed=0;shape=mxgraph.ios7.icons.folder;" parent="1" vertex="1">
          <mxGeometry x="40" y="30" width="640" height="430" as="geometry" />
        </mxCell>
        <mxCell id="52nszVkXUsVwX9IPNMUu-2" value="" style="sketch=0;outlineConnect=0;fontColor=#232F3E;gradientColor=none;fillColor=#232F3D;strokeColor=none;dashed=0;verticalLabelPosition=bottom;verticalAlign=top;align=center;html=1;fontSize=12;fontStyle=0;aspect=fixed;pointerEvents=1;shape=mxgraph.aws4.folder;" parent="1" vertex="1">
          <mxGeometry x="360" y="140" width="285.63" height="260" as="geometry" />
        </mxCell>
        <mxCell id="52nszVkXUsVwX9IPNMUu-9" style="edgeStyle=orthogonalEdgeStyle;rounded=0;orthogonalLoop=1;jettySize=auto;html=1;" parent="1" source="52nszVkXUsVwX9IPNMUu-3" target="52nszVkXUsVwX9IPNMUu-8" edge="1">
          <mxGeometry relative="1" as="geometry" />
        </mxCell>
        <mxCell id="52nszVkXUsVwX9IPNMUu-12" style="edgeStyle=orthogonalEdgeStyle;rounded=0;orthogonalLoop=1;jettySize=auto;html=1;" parent="1" source="52nszVkXUsVwX9IPNMUu-3" edge="1">
          <mxGeometry relative="1" as="geometry">
            <mxPoint x="869.9999999999995" y="150" as="targetPoint" />
          </mxGeometry>
        </mxCell>
        <mxCell id="52nszVkXUsVwX9IPNMUu-3" value="" style="sketch=0;outlineConnect=0;fontColor=#232F3E;gradientColor=none;fillColor=#232F3D;strokeColor=none;dashed=0;verticalLabelPosition=bottom;verticalAlign=top;align=center;html=1;fontSize=12;fontStyle=0;aspect=fixed;pointerEvents=1;shape=mxgraph.aws4.folder;" parent="1" vertex="1">
          <mxGeometry x="815.07" y="260" width="109.86" height="100" as="geometry" />
        </mxCell>
        <mxCell id="52nszVkXUsVwX9IPNMUu-5" style="edgeStyle=orthogonalEdgeStyle;rounded=0;orthogonalLoop=1;jettySize=auto;html=1;" parent="1" source="52nszVkXUsVwX9IPNMUu-4" target="52nszVkXUsVwX9IPNMUu-3" edge="1">
          <mxGeometry relative="1" as="geometry" />
        </mxCell>
        <mxCell id="52nszVkXUsVwX9IPNMUu-4" value="" style="html=1;verticalLabelPosition=bottom;align=center;labelBackgroundColor=#ffffff;verticalAlign=top;strokeWidth=2;strokeColor=#0080F0;shadow=0;dashed=0;shape=mxgraph.ios7.icons.folder;" parent="1" vertex="1">
          <mxGeometry x="800" y="60" width="140" height="90" as="geometry" />
        </mxCell>
        <mxCell id="52nszVkXUsVwX9IPNMUu-6" value="&lt;font style=&quot;font-size: 24px;&quot;&gt;フォルダ＝ディレクトリ&lt;/font&gt;" style="text;html=1;strokeColor=none;fillColor=none;align=center;verticalAlign=middle;whiteSpace=wrap;rounded=0;" parent="1" vertex="1">
          <mxGeometry x="350" y="520" width="360" height="30" as="geometry" />
        </mxCell>
        <mxCell id="52nszVkXUsVwX9IPNMUu-7" value="" style="sketch=0;pointerEvents=1;shadow=0;dashed=0;html=1;strokeColor=none;labelPosition=center;verticalLabelPosition=bottom;verticalAlign=top;outlineConnect=0;align=center;shape=mxgraph.office.concepts.folder;fillColor=#DA4026;" parent="1" vertex="1">
          <mxGeometry x="490" y="270" width="110" height="80" as="geometry" />
        </mxCell>
        <mxCell id="52nszVkXUsVwX9IPNMUu-10" style="edgeStyle=orthogonalEdgeStyle;rounded=0;orthogonalLoop=1;jettySize=auto;html=1;" parent="1" source="52nszVkXUsVwX9IPNMUu-8" target="52nszVkXUsVwX9IPNMUu-3" edge="1">
          <mxGeometry relative="1" as="geometry" />
        </mxCell>
        <mxCell id="52nszVkXUsVwX9IPNMUu-8" value="" style="sketch=0;pointerEvents=1;shadow=0;dashed=0;html=1;strokeColor=none;labelPosition=center;verticalLabelPosition=bottom;verticalAlign=top;outlineConnect=0;align=center;shape=mxgraph.office.concepts.folder;fillColor=#DA4026;" parent="1" vertex="1">
          <mxGeometry x="820" y="490" width="100" height="80" as="geometry" />
        </mxCell>
        <mxCell id="5YVlh0Gv94FoLDe6SWkp-1" value="&lt;font style=&quot;font-size: 27px;&quot;&gt;※ファイル≠フォルダ&lt;/font&gt;" style="text;html=1;align=center;verticalAlign=middle;whiteSpace=wrap;rounded=0;" vertex="1" parent="1">
          <mxGeometry x="395" y="560" width="270" height="30" as="geometry" />
        </mxCell>
      </root>
    </mxGraphModel>
  </diagram>
</mxfile>
